<?xml version="1.0" encoding="UTF-8" standalone="no"?>
<!-- Created with Inkscape (http://www.inkscape.org/) -->

<svg
   width="747"
   height="1038"
   viewBox="0 0 197.64375 274.6375"
   version="1.1"
   id="svg1"
   inkscape:version="1.3 (0e150ed6c4, 2023-07-21)"
   sodipodi:docname="Decals.svg"
   inkscape:export-filename="..\assets\Bottom line.png"
   inkscape:export-xdpi="96"
   inkscape:export-ydpi="96"
   xmlns:inkscape="http://www.inkscape.org/namespaces/inkscape"
   xmlns:sodipodi="http://sodipodi.sourceforge.net/DTD/sodipodi-0.dtd"
   xmlns:xlink="http://www.w3.org/1999/xlink"
   xmlns="http://www.w3.org/2000/svg"
   xmlns:svg="http://www.w3.org/2000/svg">
  <sodipodi:namedview
     id="namedview1"
     pagecolor="#ffffff"
     bordercolor="#000000"
     borderopacity="0.25"
     inkscape:showpageshadow="2"
     inkscape:pageopacity="0.0"
     inkscape:pagecheckerboard="0"
     inkscape:deskcolor="#d1d1d1"
     inkscape:document-units="mm"
     inkscape:zoom="0.40125241"
     inkscape:cx="-87.226891"
     inkscape:cy="873.51501"
     inkscape:window-width="1920"
     inkscape:window-height="1009"
     inkscape:window-x="-8"
     inkscape:window-y="351"
     inkscape:window-maximized="1"
     inkscape:current-layer="layer1" />
  <defs
     id="defs1">
    <linearGradient
       id="linearGradient8"
       inkscape:collect="always">
      <stop
         style="stop-color:#808080;stop-opacity:1;"
         offset="0"
         id="stop6" />
      <stop
         style="stop-color:#998b86;stop-opacity:1;"
         offset="0.11073826"
         id="stop11" />
      <stop
         style="stop-color:#abad98;stop-opacity:1;"
         offset="0.22483222"
         id="stop14" />
      <stop
         style="stop-color:#a1b29d;stop-opacity:1;"
         offset="0.33557048"
         id="stop15" />
      <stop
         style="stop-color:#c2dede;stop-opacity:1;"
         offset="0.5"
         id="stop10" />
      <stop
         style="stop-color:#aaabc2;stop-opacity:1;"
         offset="0.62248319"
         id="stop16" />
      <stop
         style="stop-color:#a893a7;stop-opacity:1;"
         offset="0.76006711"
         id="stop13" />
      <stop
         style="stop-color:#917e8e;stop-opacity:1;"
         offset="0.90268457"
         id="stop12" />
      <stop
         style="stop-color:#858585;stop-opacity:1;"
         offset="1"
         id="stop8" />
    </linearGradient>
    <linearGradient
       id="linearGradient1"
       inkscape:collect="always">
      <stop
         style="stop-color:#4d4d4d;stop-opacity:1;"
         offset="0"
         id="stop1" />
      <stop
         style="stop-color:#b2b2b2;stop-opacity:1;"
         offset="0.5"
         id="stop3" />
      <stop
         style="stop-color:#4d4d4d;stop-opacity:1;"
         offset="1"
         id="stop2" />
    </linearGradient>
    <linearGradient
       inkscape:collect="always"
       xlink:href="#linearGradient1"
       id="linearGradient2"
       x1="56.30814"
       y1="240.53612"
       x2="56.30814"
       y2="231.2757"
       gradientUnits="userSpaceOnUse"
       gradientTransform="matrix(1.1,0,0,0.85714282,-8.8238488,43.857462)" />
    <linearGradient
       inkscape:collect="always"
       xlink:href="#linearGradient8"
       id="linearGradient6"
       gradientUnits="userSpaceOnUse"
       gradientTransform="matrix(1.1,0,0,0.85714282,-9.8821853,43.857462)"
       x1="56.30814"
       y1="240.53612"
       x2="56.30814"
       y2="231.2757" />
    <linearGradient
       inkscape:collect="always"
       xlink:href="#linearGradient8"
       id="linearGradient16"
       gradientUnits="userSpaceOnUse"
       gradientTransform="matrix(1.1,0,0,0.85714282,90.400239,43.857462)"
       x1="56.30814"
       y1="240.53612"
       x2="56.30814"
       y2="231.2757" />
    <linearGradient
       inkscape:collect="always"
       xlink:href="#linearGradient1"
       id="linearGradient17"
       gradientUnits="userSpaceOnUse"
       gradientTransform="matrix(1.1,0,0,0.85714282,91.458576,43.857462)"
       x1="56.30814"
       y1="240.53612"
       x2="56.30814"
       y2="231.2757" />
  </defs>
  <g
     inkscape:label="Layer 1"
     inkscape:groupmode="layer"
     id="layer1">
    <path
       id="path228"
       style="color:#000000;fill:#ff0000;fill-opacity:1;stroke-width:1.00221;-inkscape-stroke:none"
       d="m 322.69468,0.0231931 -90.87826,0.0655 -1.45176,0.67963 c -3.03155,1.4197 -5.24071,4.32856 -5.77202,7.60051 -0.34742,2.1382999 -0.36738,255.6272869 -0.0201,257.7439969 0.67007,4.08795 3.54691,7.23048 7.498,8.19053 0.98331,0.2388 21.51582,0.3135 91.14949,0.33022 80.45839,0.019 90.03922,-0.0199 91.39362,-0.37222 2.98713,-0.77703 5.22708,-2.63299 6.56593,-5.44027 l 0.78599,-1.64861 V 137.18175 7.1906831 l -0.69044,-1.4045 c -1.3569,-2.7572 -3.53267,-4.63113 -6.29812,-5.42469 -1.27257,-0.36509 -9.89366,-0.39712 -92.28238,-0.33802 z M 250.98922,22.061293 h 144.3091 c 4.43598,10e-5 8.00746,3.56759 8.00746,7.99972 v 84.073197 c 0,4.43195 -3.57148,8.00009 -8.00746,8.00009 h -144.3091 c -4.43608,0 -8.00686,-3.56814 -8.00686,-8.00009 V 30.061013 c 1e-4,-4.43213 3.57078,-7.99972 8.00686,-7.99972 z" />
    <path
       id="rect1-0"
       style="fill:url(#linearGradient6);fill-opacity:1;stroke-width:3.34662;stroke-linecap:square;stroke-miterlimit:3"
       d="m 6.7468714,242.09375 c -1.099343,0 -3.042709,1.77006 -3.042709,3.96876 0,2.19868 0.885033,3.96874 1.984375,3.96874 H 101.99688 c -2.189406,-3.5412 -0.24149,-5.76802 1.05835,-7.9375 z"
       sodipodi:nodetypes="sssccs" />
    <path
       id="rect1"
       style="fill:url(#linearGradient2);fill-opacity:1;stroke-width:3.34662;stroke-linecap:square;stroke-miterlimit:3"
       d="m 8.334375,242.09375 c -1.0993426,0 -3.0427083,1.77006 -3.0427083,3.96876 0,2.19868 0.8850324,3.96874 1.984375,3.96874 H 100.40938 c -2.189403,-3.5412 -0.21862,-5.7223 1.05834,-7.9375 z"
       sodipodi:nodetypes="sssccs" />
    <path
       id="rect1-0-9"
       style="fill:url(#linearGradient16);fill-opacity:1;stroke-width:3.34662;stroke-linecap:square;stroke-miterlimit:3"
       d="m 107.0293,242.09375 c -1.09934,0 -3.04271,1.77006 -3.04271,3.96876 0,2.19868 0.88504,3.96874 1.98438,3.96874 h 86.78334 c -2.1894,-3.5412 0.0672,-5.5165 1.05835,-7.9375 z"
       sodipodi:nodetypes="sssccs" />
    <path
       id="rect1-8"
       style="fill:url(#linearGradient17);fill-opacity:1;stroke-width:3.34662;stroke-linecap:square;stroke-miterlimit:3"
       d="m 108.61681,242.09375 c -1.09934,0 -3.04271,1.77006 -3.04271,3.96876 0,2.19868 0.88503,3.96874 1.98437,3.96874 h 83.60834 c -2.1894,-3.5412 0.0672,-5.5165 1.05834,-7.9375 z"
       sodipodi:nodetypes="sssccs" />
    <rect
       style="fill:#ffffff;fill-opacity:0.15000001;stroke-width:2.56516;stroke-linecap:square;stroke-miterlimit:3"
       id="rect2"
       width="161.81017"
       height="16.531605"
       x="27.115141"
       y="251.05862"
       ry="2.9512389" />
  </g>
</svg>
